# xmcd CD database file generated by OrangeCD 6.0
#
# Track frame offsets:
#	150
#	14977
#	40797
#	53530
#	77206
#	105505
#	129375
#	146145
#	163527
#	178304
#	191806
#	213030
#	226402
#
# Disc length: 3342 seconds
#
# Revision: 0
# Processed by: cddbd v1.5.2PL0 Copyright (c) Steve Scherf et al.
# Submitted via: OrangeCD 6.0
#
DISCID=b30d0c0d
DTITLE=Lenny Kravitz - Let Love Rule
DYEAR=1900
DGENRE=
TTITLE0=Sittin On The Top Of The World
TTITLE1=Let Love Rule
TTITLE2=Freedom Train
TTITLE3=My Precious Love
TTITLE4=I Build This Garden For Us
TTITLE5=Fear
TTITLE6=Does Anybody Out There Even Care
TTITLE7=Mr. Cab Driver
TTITLE8=Rosemary
TTITLE9=Be
TTITLE10=Blues For Sister Someone
TTITLE11=Empty Hands
TTITLE12=Flower Child
EXTD=
EXTT0=
EXTT1=
EXTT2=
EXTT3=
EXTT4=
EXTT5=
EXTT6=
EXTT7=
EXTT8=
EXTT9=
EXTT10=
EXTT11=
EXTT12=
PLAYORDER=
